<svg width="200" height="200" viewBox="0 0 200 200" fill="none" xmlns="http://www.w3.org/2000/svg">
<g filter="url(#filter0_d_1_166)">
<path d="M86.8461 25.9829C72.0949 28.4361 58.9333 34.978 47.7428 45.4198C40.6216 52.0875 35.4714 59.0068 31.3385 67.4986C19.6393 91.5274 21.6104 119.079 36.6794 141.724C40.3672 147.196 49.0145 156.191 54.5461 160.217C84.875 182.233 126.013 179.151 152.59 152.794C165.434 140.151 172.492 125.369 174.781 106.561C176.307 93.8548 172.81 76.7453 166.133 64.7309C154.689 44.0359 134.533 29.6313 111.77 25.9829C104.649 24.8507 93.713 24.8507 86.8461 25.9829ZM66.0546 60.2648C66.3089 61.2712 66.8811 61.8374 67.6441 61.8374C68.4071 61.8374 68.9794 61.2712 69.2337 60.2648L69.6152 58.6922L80.3606 58.6293H91.1697L80.6786 58.9439C70.7597 59.3213 70.1874 59.3842 70.1874 60.5793C70.1874 61.7745 70.6961 61.8374 80.6786 62.1519L91.1697 62.5293L80.5514 62.6551C70.1874 62.7809 69.9331 62.7809 69.7424 64.1648C69.6152 65.0454 68.9794 65.6744 67.9621 65.926C66.9447 66.1776 66.3089 66.8067 66.1817 67.6873C66.0546 68.505 65.3552 69.197 64.4014 69.4486L62.8755 69.826L62.7483 80.3307L62.6211 90.7725L62.4304 80.2049C62.2396 69.6373 62.176 69.6373 60.7772 69.826C59.442 70.0147 59.3784 70.2663 58.9969 80.3936L58.679 90.7725V80.0791L58.7426 69.4486L60.3321 69.0712C61.3495 68.8195 61.9217 68.2534 61.9217 67.4986C61.9217 66.7438 61.3495 66.1776 60.3321 65.926C58.1703 65.4228 58.0432 62.5922 60.205 62.2777C61.0316 62.1519 61.7945 61.6487 61.9853 61.1454C62.1125 60.6422 62.3668 59.8245 62.5575 59.2584C63.0662 57.6858 65.6095 58.4406 66.0546 60.2648ZM129.637 60.2648C129.891 61.2712 130.464 61.8374 131.227 61.8374C131.99 61.8374 132.562 61.2712 132.816 60.2648C133.325 58.0632 136.123 58.0632 136.631 60.2648C136.886 61.2083 137.585 61.9003 138.539 62.1519C140.764 62.6551 140.637 64.7309 138.348 65.8002C136.186 66.8067 136.313 68.5679 138.539 69.0712L140.128 69.4486L140.192 80.0791V90.7725L139.874 80.3936C139.492 70.2034 139.492 70.0147 138.094 69.826C136.631 69.6373 136.631 69.6373 136.504 80.2049L136.377 90.7725L136.186 80.3307C135.995 69.826 135.995 69.826 134.406 69.4486C133.516 69.197 132.816 68.505 132.689 67.6873C132.562 66.8067 131.926 66.1776 130.909 65.926C129.891 65.6744 129.256 65.0454 129.128 64.1648C128.938 62.7809 128.683 62.7809 118.319 62.6551L107.701 62.5293L118.192 62.1519C128.175 61.8374 128.683 61.7745 128.683 60.5793C128.683 59.3842 128.111 59.3213 118.192 58.9439L107.701 58.6293H118.51L129.256 58.6922L129.637 60.2648ZM108.083 75.8646C109.609 78.192 112.661 81.9033 114.822 84.1678C118.955 88.508 120.736 91.6532 120.736 94.7354C120.736 96.4338 120.545 96.6225 117.811 96.9999C116.158 97.1886 113.042 97.3773 110.817 97.3773C107.638 97.3773 106.747 97.1886 106.747 96.4338C106.747 95.8676 107.32 95.4902 108.337 95.4902C109.609 95.4902 110.054 95.1128 110.372 93.6031C110.753 91.5274 112.661 89.829 114.695 89.7661C115.395 89.7661 115.585 89.5774 115.14 89.3887C113.678 88.8226 110.562 90.5209 110.181 92.1564C109.672 94.0435 108.083 93.8548 106.811 91.6532C105.984 90.2064 106.048 89.829 106.938 87.9419C108.21 85.5516 107.892 84.5452 106.62 86.8097C106.175 87.5645 105.666 90.0806 105.476 92.3451C105.158 96.4338 105.158 96.4338 103.123 96.6225C100.834 96.8741 100.262 95.8676 102.297 95.3015C103.505 94.987 103.568 94.6096 103.187 90.3322C102.36 79.8904 101.47 78.0033 97.0193 76.934C96.0655 76.6824 95.1754 76.2421 94.9846 75.9904C94.7939 75.6759 95.8748 74.2292 97.3372 72.7824C98.8632 71.2728 100.008 69.7002 99.8805 69.2599C99.8169 68.8195 100.898 69.1341 102.551 70.0776C104.522 71.1469 106.175 72.8453 108.083 75.8646ZM89.3258 77.6259C91.2333 79.5759 91.2333 80.5823 89.4529 81.3372C88.1177 81.9033 87.927 82.5952 87.4183 88.1935C86.9096 93.729 86.9732 94.5467 87.927 95.2386C88.5628 95.6789 88.7535 96.1192 88.4992 96.308C87.2276 97.0628 86.2738 95.4902 85.7652 91.779C85.4473 89.5774 85.0022 87.6274 84.7478 87.3758C84.4935 87.1871 84.4935 88.0677 84.7478 89.3887C85.2565 92.0935 84.4299 94.2322 83.8577 91.779C83.6669 90.8983 83.0947 90.0806 82.586 89.9548C81.7595 89.6403 81.7595 89.7661 82.5225 90.7096C83.2219 91.5274 83.2854 92.0935 82.6496 93.3515C81.6323 95.5531 81.7595 95.9934 83.4126 96.308C84.3028 96.4967 83.9213 96.6225 82.4589 96.6854C81.1872 96.6854 79.4069 96.4967 78.5168 96.1192C77.1179 95.616 76.8636 95.1128 76.8636 93.1628C76.9272 90.0806 77.7538 88.6967 81.823 85.1113C83.6034 83.4758 85.1293 81.7146 85.1293 81.2113C85.1293 80.142 87.0368 75.9904 87.4819 75.9904C87.6726 75.9904 88.4992 76.6824 89.3258 77.6259ZM120.672 80.3936C119.464 81.9662 119.337 82.5323 119.973 83.7904C120.354 84.6081 121.435 85.8032 122.389 86.4952C125.759 88.7597 127.094 90.3951 127.094 92.2193C127.094 94.5467 126.013 95.4902 123.47 95.4902C122.007 95.4902 121.371 95.1757 121.371 94.5467C121.371 93.9806 121.944 93.6031 122.897 93.6031C126.649 93.6031 126.331 90.3951 122.325 87.9419C119.782 86.4323 118.828 84.9226 118.828 82.7839C118.828 81.1484 120.418 78.5065 121.435 78.5065C121.753 78.5065 121.435 79.3243 120.672 80.3936ZM79.5977 81.7775C80.0427 83.1613 78.6439 85.3 76.8 86.0548C74.1296 87.1871 72.8579 88.8855 73.303 90.7096C73.4937 91.5903 74.2567 92.4709 74.9561 92.6596C76.4185 93.0999 76.6729 94.2322 75.274 94.2322C73.6845 94.2322 71.777 91.8419 71.777 89.8919C71.777 88.0677 74.1931 85.4258 75.9099 85.4258C77.1179 85.4258 78.9618 83.0355 78.5803 81.9662C78.326 81.463 78.4532 81.0226 78.7075 81.0226C79.0254 81.0226 79.4069 81.4001 79.5977 81.7775ZM97.8458 83.2242C99.3718 84.3565 100.198 84.6081 100.771 84.1049C101.852 83.2242 102.615 84.6081 101.661 85.7403C100.453 87.1871 99.3718 86.8726 96.9557 84.4823C95.684 83.2871 94.6031 82.2807 94.476 82.2807C94.4124 82.2807 93.0136 83.4129 91.4876 84.7968C88.1177 87.8161 87.3547 87.25 90.3431 83.9791C92.8864 81.2743 94.8575 81.0226 97.8458 83.2242ZM79.6612 101.34C80.6786 102.095 80.8693 103.353 81.0601 109.392C81.378 118.827 80.9965 119.645 76.037 119.896L72.4128 120.085V110.272V100.522H75.4648C77.1815 100.522 79.0254 100.9 79.6612 101.34ZM89.7073 101.592C90.7246 102.472 90.8518 103.668 90.8518 110.335C90.8518 119.016 90.4067 120.022 86.7189 120.022C83.0311 120.022 82.586 119.016 82.586 110.461C82.586 104.234 82.7768 102.598 83.6669 101.655C84.9386 100.271 88.1177 100.208 89.7073 101.592ZM97.21 104.108C98.736 112.034 98.6724 111.971 99.7533 106.184C100.771 100.9 100.771 100.837 102.805 100.648L104.84 100.46V110.209C104.84 119.519 104.776 120.022 103.568 120.022C102.487 120.022 102.36 119.519 102.169 115.43L101.979 110.901L101.089 115.43C100.262 119.519 100.008 120.022 98.736 120.022C97.5279 120.022 97.21 119.519 96.6378 116.688C96.3199 114.927 95.8748 112.851 95.7476 112.159C95.5569 111.467 95.4297 112.977 95.3661 115.43C95.3025 119.896 95.239 120.022 93.713 120.022H92.1234V110.272V100.522H94.2852C96.447 100.522 96.5106 100.585 97.21 104.108ZM114.695 108.385C115.458 112.537 116.221 116.877 116.476 117.946C116.857 119.833 116.73 120.022 115.395 120.022C114.441 120.022 113.741 119.582 113.551 118.764C113.296 117.821 112.661 117.506 111.262 117.506C109.736 117.506 109.291 117.758 109.291 118.764C109.291 119.708 108.846 120.022 107.638 120.022C106.239 120.022 106.048 119.771 106.302 118.575C106.493 117.821 107.32 113.417 108.083 108.826L109.545 100.46L111.453 100.648L113.36 100.837L114.695 108.385ZM120.863 108.826C121.053 115.745 121.244 117.192 122.007 117.192C122.77 117.192 122.961 115.745 123.152 108.826L123.342 100.522H124.868H126.458V108.888C126.458 118.764 125.949 120.022 122.007 120.022C118.065 120.022 117.556 118.764 117.556 108.888V100.522H119.146H120.672L120.863 108.826ZM60.8408 129.961C62.2396 130.15 62.2396 130.15 62.3668 119.582L62.494 109.014L62.6847 119.456L62.8755 129.961L64.465 130.338C65.6095 130.653 66.0546 131.156 66.0546 132.225C66.0546 133.358 66.4361 133.798 67.517 133.987C68.28 134.112 69.1701 134.804 69.5516 135.559C70.1874 137.006 70.3782 137.006 80.4878 137.006C86.9732 137.006 90.8518 137.257 90.8518 137.635C90.8518 138.012 86.9096 138.264 80.2971 138.264C70.6325 138.264 69.8059 138.327 69.9967 139.333C70.1874 140.34 71.3955 140.528 80.6786 140.843L91.1697 141.157H80.3606C69.6152 141.095 69.5516 141.095 69.3609 139.648C69.043 137.698 66.2453 137.698 65.9274 139.648C65.6731 141.661 62.6211 141.724 62.3668 139.711C62.2396 138.893 61.6038 138.264 60.8408 138.138C58.9333 137.887 57.9796 136.125 58.9969 134.867C59.5056 134.301 60.3957 133.861 61.0316 133.861C63.0026 133.861 62.494 131.722 60.3321 130.904L58.4247 130.212L58.5518 119.582L58.679 109.014L59.0605 119.393C59.3784 129.583 59.3784 129.772 60.8408 129.961ZM138.094 129.961C139.429 129.772 139.492 129.52 139.81 119.393L140.192 109.014L140.319 119.582L140.446 130.212L138.539 130.904C136.377 131.722 135.868 133.861 137.839 133.861C139.365 133.861 140.7 135.433 140.255 136.691C140.001 137.195 139.174 137.761 138.284 138.012C137.331 138.201 136.631 138.893 136.504 139.711C136.25 141.724 133.198 141.661 132.943 139.648C132.625 137.698 129.828 137.698 129.51 139.648C129.319 141.095 129.256 141.095 118.51 141.157H107.701L118.192 140.843C127.475 140.528 128.683 140.34 128.874 139.333C129.065 138.327 128.238 138.264 118.574 138.264C111.961 138.264 108.019 138.012 108.019 137.635C108.019 137.257 111.898 137.006 118.383 137.006C128.493 137.006 128.683 137.006 129.319 135.559C129.701 134.804 130.591 134.112 131.417 133.987C132.435 133.798 132.816 133.358 132.816 132.225C132.816 131.156 133.261 130.653 134.406 130.338L135.995 129.961L136.123 119.456L136.25 109.014L136.44 119.582C136.631 130.15 136.695 130.15 138.094 129.961ZM91.8055 127.885C91.8055 129.395 91.4876 129.835 90.4067 129.961C89.135 130.15 88.9443 129.898 88.9443 127.885C88.9443 125.872 89.135 125.621 90.3431 125.809C91.424 125.935 91.7419 126.438 91.8055 127.885ZM108.464 126.061C108.273 126.25 107.701 126.312 107.256 126.124C106.747 125.935 106.938 125.746 107.638 125.746C108.337 125.683 108.718 125.872 108.464 126.061ZM101.343 128.514C101.343 129.395 101.216 130.087 100.961 130.087C100.453 130.087 99.8169 127.067 100.262 126.627C100.834 126.124 101.216 126.879 101.343 128.514ZM94.476 129.269C94.2852 129.898 94.1581 129.52 94.1581 128.514C94.1581 127.445 94.2852 127.004 94.476 127.382C94.6031 127.822 94.6031 128.703 94.476 129.269ZM97.3372 127.508C96.6378 127.948 96.6378 128.074 97.4643 128.388C98.9903 128.954 98.6724 130.087 97.0829 130.024C95.7476 130.024 95.7476 129.961 96.8285 129.52C97.973 129.08 97.973 129.017 96.9557 128.64C95.8112 128.2 96.1291 126.941 97.4008 126.941C97.9094 126.941 97.9094 127.13 97.3372 127.508ZM104.395 127.696C104.013 128.137 103.568 128.954 103.378 129.458C103.187 130.024 102.996 129.646 102.996 128.64C102.932 127.445 103.25 126.941 103.95 126.941C104.713 126.941 104.84 127.193 104.395 127.696ZM109.164 128.388C109.418 129.646 107.574 130.527 106.62 129.583C105.666 128.64 106.557 126.816 107.828 127.067C108.464 127.193 109.036 127.759 109.164 128.388Z" fill="#324163"/>
<path d="M63.0662 60.0132C62.5575 61.3342 63.8928 62.6551 64.8465 61.7116C65.6731 60.8939 65.1644 59.0068 64.1471 59.0068C63.7656 59.0068 63.3205 59.4471 63.0662 60.0132Z" fill="#324163"/>
<path d="M59.4419 63.347C58.9333 64.1019 60.7772 65.4857 61.6038 64.9825C62.6847 64.2906 62.3032 62.7809 61.0315 62.7809C60.3321 62.7809 59.6327 63.0325 59.4419 63.347Z" fill="#324163"/>
<path d="M62.8754 64.1018C62.8754 65.6744 64.9737 65.4857 65.2916 63.8502C65.4187 63.0954 65.1008 62.7809 64.2107 62.7809C63.2569 62.7809 62.8754 63.1583 62.8754 64.1018Z" fill="#324163"/>
<path d="M66.0545 63.6615C66.0545 65.0454 67.2626 65.5486 68.2799 64.668C69.6787 63.5357 69.4244 62.7809 67.6441 62.7809C66.6903 62.7809 66.0545 63.1583 66.0545 63.6615Z" fill="#324163"/>
<path d="M62.8754 67.1841C62.8754 68.0018 63.3205 68.4421 64.1471 68.4421C64.9737 68.4421 65.4187 68.0018 65.4187 67.1841C65.4187 66.3664 64.9737 65.926 64.1471 65.926C63.3205 65.926 62.8754 66.3664 62.8754 67.1841Z" fill="#324163"/>
<path d="M133.643 60.0132C133.134 61.3342 134.469 62.6551 135.423 61.7116C136.25 60.8939 135.741 59.0068 134.724 59.0068C134.342 59.0068 133.897 59.4471 133.643 60.0132Z" fill="#324163"/>
<path d="M129.764 63.8503C129.891 64.4793 130.527 64.9825 131.227 64.9825C131.926 64.9825 132.562 64.4793 132.689 63.8503C132.88 63.0326 132.498 62.781 131.227 62.781C129.955 62.781 129.573 63.0326 129.764 63.8503Z" fill="#324163"/>
<path d="M133.452 64.1018C133.452 65.6744 135.55 65.4857 135.868 63.8502C135.995 63.0954 135.678 62.7809 134.787 62.7809C133.834 62.7809 133.452 63.1583 133.452 64.1018Z" fill="#324163"/>
<path d="M136.631 64.0389C136.631 65.4857 138.03 65.7373 139.111 64.4793C139.937 63.4728 139.429 62.7809 137.776 62.7809C137.076 62.7809 136.631 63.2212 136.631 64.0389Z" fill="#324163"/>
<path d="M133.452 67.1212C133.452 68.3163 134.915 69.3228 135.614 68.6309C136.504 67.6873 135.932 65.9261 134.724 65.9261C133.897 65.9261 133.452 66.3664 133.452 67.1212Z" fill="#324163"/>
<path d="M98.5452 72.5938C98.5452 73.2857 98.7359 73.4744 98.9267 72.9712C99.1174 72.5309 99.0538 71.9647 98.8631 71.776C98.6724 71.5244 98.4816 71.9018 98.5452 72.5938Z" fill="#324163"/>
<path d="M75.592 104.989C75.592 105.869 75.9099 106.184 76.6729 106.058C78.326 105.743 78.5168 103.668 76.9272 103.668C75.9735 103.668 75.592 104.045 75.592 104.989Z" fill="#324163"/>
<path d="M75.592 113.48C75.592 117.066 75.7191 117.569 76.7365 117.38C77.6266 117.192 77.881 116.374 78.0081 113.229C78.1989 109.643 78.0717 109.329 76.8636 109.329C75.7191 109.329 75.592 109.706 75.592 113.48Z" fill="#324163"/>
<path d="M85.5744 104.045C84.875 104.8 85.0657 116.751 85.7651 117.192C86.1466 117.443 86.9096 117.255 87.4183 116.814C88.8171 115.682 88.4356 104.108 87.0368 103.793C86.4645 103.73 85.8287 103.793 85.5744 104.045Z" fill="#324163"/>
<path d="M110.817 110.587C110.308 113.355 110.372 114.109 111.071 114.235C112.47 114.613 112.597 113.984 112.025 110.461L111.453 107.127L110.817 110.587Z" fill="#324163"/>
<path d="M62.8754 132.603C62.8754 133.421 63.3205 133.861 64.1471 133.861C64.9737 133.861 65.4187 133.421 65.4187 132.603C65.4187 131.785 64.9737 131.345 64.1471 131.345C63.3205 131.345 62.8754 131.785 62.8754 132.603Z" fill="#324163"/>
<path d="M63.3205 134.867C62.4303 135.811 62.939 137.006 64.2107 137.006C65.1008 137.006 65.4187 136.691 65.2916 135.937C65.1008 134.804 64.0199 134.238 63.3205 134.867Z" fill="#324163"/>
<path d="M66.4996 134.93C65.4823 135.874 66.1181 137.006 67.6441 137.006C69.3608 137.006 69.6787 136.44 68.4707 135.245C67.5805 134.364 67.0718 134.301 66.4996 134.93Z" fill="#324163"/>
<path d="M59.5056 135.496C58.8698 136.188 59.6963 137.006 61.0316 137.006C61.6674 137.006 62.2396 136.566 62.2396 136.062C62.2396 135.119 60.2686 134.741 59.5056 135.496Z" fill="#324163"/>
<path d="M63.0025 139.333C63.1297 139.962 63.6384 140.466 64.147 140.466C64.6557 140.466 65.1644 139.962 65.2915 139.333C65.4187 138.579 65.1008 138.264 64.147 138.264C63.1933 138.264 62.8754 138.579 63.0025 139.333Z" fill="#324163"/>
<path d="M133.452 132.603C133.452 133.421 133.897 133.861 134.724 133.861C135.55 133.861 135.995 133.421 135.995 132.603C135.995 131.785 135.55 131.345 134.724 131.345C133.897 131.345 133.452 131.785 133.452 132.603Z" fill="#324163"/>
<path d="M130.4 135.245C129.192 136.44 129.51 137.006 131.29 137.006C132.435 137.006 132.88 136.691 132.689 135.937C132.435 134.616 131.354 134.301 130.4 135.245Z" fill="#324163"/>
<path d="M134.279 134.93C132.943 135.37 133.325 137.006 134.724 137.006C135.423 137.006 135.995 136.628 135.995 136.125C135.995 134.993 135.296 134.553 134.279 134.93Z" fill="#324163"/>
<path d="M136.631 136.062C136.631 136.754 137.076 137.006 138.094 136.88C138.856 136.754 139.492 136.377 139.492 136.062C139.492 135.685 138.856 135.37 138.094 135.245C137.076 135.119 136.631 135.37 136.631 136.062Z" fill="#324163"/>
<path d="M133.579 139.333C133.706 139.962 134.215 140.466 134.724 140.466C135.232 140.466 135.741 139.962 135.868 139.333C135.995 138.579 135.677 138.264 134.724 138.264C133.77 138.264 133.452 138.579 133.579 139.333Z" fill="#324163"/>
<path d="M89.5801 126.942C89.5801 127.256 89.898 127.571 90.2159 127.571C90.5974 127.571 90.8517 127.256 90.8517 126.942C90.8517 126.564 90.5974 126.313 90.2159 126.313C89.898 126.313 89.5801 126.564 89.5801 126.942Z" fill="#324163"/>
<path d="M89.5801 128.829C89.5801 129.143 90.0252 129.458 90.5338 129.458C91.0425 129.458 91.4876 129.143 91.4876 128.829C91.4876 128.451 91.0425 128.2 90.5338 128.2C90.0252 128.2 89.5801 128.451 89.5801 128.829Z" fill="#324163"/>
<path d="M107.192 128.011C106.429 128.703 106.684 129.458 107.701 129.458C108.21 129.458 108.655 129.017 108.655 128.514C108.655 127.508 107.892 127.256 107.192 128.011Z" fill="#324163"/>
</g>
<defs>
<filter id="filter0_d_1_166" x="-6" y="0" width="212" height="216" filterUnits="userSpaceOnUse" color-interpolation-filters="sRGB">
<feFlood flood-opacity="0" result="BackgroundImageFix"/>
<feColorMatrix in="SourceAlpha" type="matrix" values="0 0 0 0 0 0 0 0 0 0 0 0 0 0 0 0 0 0 127 0" result="hardAlpha"/>
<feOffset dy="10"/>
<feGaussianBlur stdDeviation="3"/>
<feComposite in2="hardAlpha" operator="out"/>
<feColorMatrix type="matrix" values="0 0 0 0 0 0 0 0 0 0 0 0 0 0 0 0 0 0 0.25 0"/>
<feBlend mode="normal" in2="BackgroundImageFix" result="effect1_dropShadow_1_166"/>
<feBlend mode="normal" in="SourceGraphic" in2="effect1_dropShadow_1_166" result="shape"/>
</filter>
</defs>
</svg>
